<?xml version="1.0" encoding="utf-8"?><svg width="271" height="172" viewBox="0 0 271 172" xmlns="http://www.w3.org/2000/svg" xmlns:xlink="http://www.w3.org/1999/xlink"><svg id="clear-view-escapes" data-name="Layer 1" width="142.4" height="59.53" viewBox="0 0 142.4 59.53" xmlns="http://www.w3.org/2000/svg"><defs><style>.acls-1{fill:#fff}</style></defs><title>clear-view-escapes</title><path class="acls-1" d="M19.5 27.52v4.75H5.93v5.51h12.45v4.39H5.93v6.3h13.85v4.75H.28v-25.7H19.5zM27.36 48.59a3 3 0 0 0 .88 1 3.78 3.78 0 0 0 1.24.56 5.84 5.84 0 0 0 1.46.18 5.46 5.46 0 0 0 1.13-.13 3.86 3.86 0 0 0 1.08-.4 2.47 2.47 0 0 0 .85-.75 1.89 1.89 0 0 0 .32-1.13 1.91 1.91 0 0 0-1.53-1.73 30.59 30.59 0 0 0-4.3-1.19q-1.12-.25-2.18-.59a7.38 7.38 0 0 1-1.89-.9 4.35 4.35 0 0 1-1.33-1.4 4 4 0 0 1-.5-2.07 5.6 5.6 0 0 1 .7-3 5.16 5.16 0 0 1 1.85-1.82 8.13 8.13 0 0 1 2.59-.94 15.92 15.92 0 0 1 3-.27 14.79 14.79 0 0 1 2.93.29 7.77 7.77 0 0 1 2.54 1 5.83 5.83 0 0 1 1.8 1.88 6.11 6.11 0 0 1 .89 2.82H34a2.24 2.24 0 0 0-1.12-2 5.1 5.1 0 0 0-2.37-.52 8.77 8.77 0 0 0-.94.05 3.15 3.15 0 0 0-.92.23 1.91 1.91 0 0 0-.7.52 1.38 1.38 0 0 0-.29.92 1.4 1.4 0 0 0 .5 1.12 3.88 3.88 0 0 0 1.31.7 16.38 16.38 0 0 0 1.85.49l2.18.49a21.57 21.57 0 0 1 2.18.61 7.2 7.2 0 0 1 1.89 1 4.63 4.63 0 0 1 1.33 1.48 4.34 4.34 0 0 1 .5 2.18 5.65 5.65 0 0 1-2.66 5.07A7.9 7.9 0 0 1 34 53.37a15.9 15.9 0 0 1-3.11.31 15.36 15.36 0 0 1-3.17-.32A8.35 8.35 0 0 1 25 52.27a6.17 6.17 0 0 1-2-2 6.25 6.25 0 0 1-.85-3.11H27a2.8 2.8 0 0 0 .36 1.43zM51.27 38a3.59 3.59 0 0 0-2.05.56A4.45 4.45 0 0 0 47.87 40a6.23 6.23 0 0 0-.74 1.94 10.54 10.54 0 0 0-.21 2.06 10.11 10.11 0 0 0 .21 2 6.32 6.32 0 0 0 .7 1.89 4 4 0 0 0 1.31 1.39 3.61 3.61 0 0 0 2 .54 3.75 3.75 0 0 0 2.83-1 4.86 4.86 0 0 0 1.24-2.75h4.93a8.43 8.43 0 0 1-2.88 5.65 9.29 9.29 0 0 1-6.08 1.94 10.16 10.16 0 0 1-3.83-.7 8.49 8.49 0 0 1-3-2 8.92 8.92 0 0 1-1.91-3 10.42 10.42 0 0 1-.68-3.83 12.4 12.4 0 0 1 .63-4 9 9 0 0 1 1.9-3.13 8.49 8.49 0 0 1 3-2.1 10.15 10.15 0 0 1 4-.76 11.63 11.63 0 0 1 3.19.43 8.49 8.49 0 0 1 2.73 1.31 6.79 6.79 0 0 1 2.83 5.31h-5A3.43 3.43 0 0 0 51.27 38zM62.82 40.33a5.93 5.93 0 0 1 .9-3 6.13 6.13 0 0 1 2-1.91 8.83 8.83 0 0 1 2.75-1 15.71 15.71 0 0 1 3.08-.31 20.85 20.85 0 0 1 2.84.2 8.72 8.72 0 0 1 2.63.77A5.18 5.18 0 0 1 79 36.67a4.47 4.47 0 0 1 .76 2.72v9.68a19.49 19.49 0 0 0 .14 2.41 4.34 4.34 0 0 0 .5 1.73h-5.19a6.77 6.77 0 0 1-.21-.88 7.44 7.44 0 0 1-.13-.92A6.64 6.64 0 0 1 72 53.17a11.55 11.55 0 0 1-3.38.5 9.1 9.1 0 0 1-2.48-.32 5.68 5.68 0 0 1-2-1 4.69 4.69 0 0 1-1.35-1.73 5.84 5.84 0 0 1-.49-2.48 5.42 5.42 0 0 1 .56-2.61 4.66 4.66 0 0 1 1.44-1.64 6.44 6.44 0 0 1 2-.92 21.75 21.75 0 0 1 2.29-.49q1.15-.18 2.27-.29a13.74 13.74 0 0 0 2-.32 3.43 3.43 0 0 0 1.37-.63 1.38 1.38 0 0 0 .4-1.24 2.72 2.72 0 0 0-.27-1.31 2 2 0 0 0-.72-.69 2.86 2.86 0 0 0-1-.36 8.61 8.61 0 0 0-1.28-.09 3.88 3.88 0 0 0-2.37.65 2.89 2.89 0 0 0-1 2.16h-5.17zm11.8 3.78a2.28 2.28 0 0 1-.81.45 8.28 8.28 0 0 1-1 .27c-.41.07-.81.17-1.2.17s-.82.11-1.22.18a9.24 9.24 0 0 0-1.13.29 3.34 3.34 0 0 0-1 .49 2.3 2.3 0 0 0-.67.77 2.49 2.49 0 0 0-.25 1.19 2.4 2.4 0 0 0 .25 1.15 1.93 1.93 0 0 0 .68.74 2.9 2.9 0 0 0 1 .38 6.48 6.48 0 0 0 1.19.11 4.51 4.51 0 0 0 2.34-.5 3.36 3.36 0 0 0 1.22-1.21 3.87 3.87 0 0 0 .49-1.42 10.06 10.06 0 0 0 .12-1.17v-1.89zM88.56 34.6V37h.07A5.62 5.62 0 0 1 91 34.78a7.29 7.29 0 0 1 3.17-.68 8.07 8.07 0 0 1 3.78.83 7.82 7.82 0 0 1 2.63 2.2 9.31 9.31 0 0 1 1.55 3.19 14.19 14.19 0 0 1 .5 3.8 12.82 12.82 0 0 1-.5 3.6 9.18 9.18 0 0 1-1.53 3.06 7.58 7.58 0 0 1-2.6 2.11 7.69 7.69 0 0 1-3.58.79 7.23 7.23 0 0 1-3.18-.7 6 6 0 0 1-2.39-2.07h-.04v8.82H83.7V34.6h4.86zm6.64 14.76A4.09 4.09 0 0 0 96.56 48a5.43 5.43 0 0 0 .74-1.89 11.19 11.19 0 0 0 .22-2.2 10.32 10.32 0 0 0-.23-2.2 5.86 5.86 0 0 0-.77-1.92 4.33 4.33 0 0 0-1.39-1.37 3.87 3.87 0 0 0-2.08-.42 3.94 3.94 0 0 0-2.11.52 4.22 4.22 0 0 0-1.37 1.35 5.6 5.6 0 0 0-.74 1.91 11.3 11.3 0 0 0-.2 2.22 10.31 10.31 0 0 0 .23 2.2 5.69 5.69 0 0 0 .76 1.8 4.36 4.36 0 0 0 5.58 1.36zM111.15 48.75a5.24 5.24 0 0 0 6 .34 3.21 3.21 0 0 0 1.37-1.64H123a8.54 8.54 0 0 1-3.31 4.79 9.75 9.75 0 0 1-5.4 1.44 10.6 10.6 0 0 1-4-.7 8.22 8.22 0 0 1-3-2 9 9 0 0 1-1.89-3.09 11.34 11.34 0 0 1-.67-4 10.84 10.84 0 0 1 .68-3.89 9 9 0 0 1 4.95-5.18 9.63 9.63 0 0 1 3.87-.76 8.84 8.84 0 0 1 4.14.92 8.26 8.26 0 0 1 2.9 2.46A10.14 10.14 0 0 1 123 41a13.14 13.14 0 0 1 .36 4.14H109.9a5.16 5.16 0 0 0 1.25 3.61zm5.78-9.75a3.59 3.59 0 0 0-2.79-1 4.45 4.45 0 0 0-2 .41 3.89 3.89 0 0 0-1.3 1 3.77 3.77 0 0 0-.68 1.3 5.83 5.83 0 0 0-.23 1.22h8.31a5.91 5.91 0 0 0-1.31-2.93zM130.64 48.59a3 3 0 0 0 .88 1 3.78 3.78 0 0 0 1.24.56 5.83 5.83 0 0 0 1.46.18 5.46 5.46 0 0 0 1.13-.13 3.86 3.86 0 0 0 1.08-.4 2.47 2.47 0 0 0 .81-.72 1.89 1.89 0 0 0 .32-1.13 1.91 1.91 0 0 0-1.56-1.76 30.55 30.55 0 0 0-4.22-1.19q-1.11-.25-2.18-.59a7.39 7.39 0 0 1-1.89-.9 4.36 4.36 0 0 1-1.33-1.4 4 4 0 0 1-.5-2.07 5.6 5.6 0 0 1 .7-3 5.18 5.18 0 0 1 1.85-1.82 8.13 8.13 0 0 1 2.59-.94 15.91 15.91 0 0 1 3-.27 14.79 14.79 0 0 1 2.93.29 7.77 7.77 0 0 1 2.54 1 5.84 5.84 0 0 1 1.85 1.82 6.11 6.11 0 0 1 .88 2.86h-4.86a2.24 2.24 0 0 0-1.12-2 5.1 5.1 0 0 0-2.37-.52 8.77 8.77 0 0 0-.94.05 3.15 3.15 0 0 0-.92.23 1.9 1.9 0 0 0-.7.52 1.38 1.38 0 0 0-.29.92 1.4 1.4 0 0 0 .5 1.12 3.87 3.87 0 0 0 1.31.7 16.33 16.33 0 0 0 1.85.49l2.1.51a21.57 21.57 0 0 1 2.18.61 7.18 7.18 0 0 1 1.89 1 4.63 4.63 0 0 1 1.33 1.48 4.33 4.33 0 0 1 .5 2.18 5.65 5.65 0 0 1-2.68 5.04 7.89 7.89 0 0 1-2.72 1.06 15.9 15.9 0 0 1-3.11.31 15.35 15.35 0 0 1-3.17-.32 8.35 8.35 0 0 1-2.75-1.08 6.18 6.18 0 0 1-2-2 6.25 6.25 0 0 1-.85-3.11h4.86a2.8 2.8 0 0 0 .38 1.42zM23.64 6.29a6.36 6.36 0 0 0-.55-1.43 4 4 0 0 0-.9-1.12A4 4 0 0 0 20.9 3a5.11 5.11 0 0 0-1.71-.26 5 5 0 0 0-2.46.58A4.84 4.84 0 0 0 15 4.85a6.93 6.93 0 0 0-1 2.19 10.16 10.16 0 0 0 0 5 6.92 6.92 0 0 0 1 2.19 4.83 4.83 0 0 0 1.69 1.54 5 5 0 0 0 2.46.57A4.44 4.44 0 0 0 21 16a4.12 4.12 0 0 0 1.38-1 4.71 4.71 0 0 0 .9-1.49 7.13 7.13 0 0 0 .43-1.83h3.05a8.48 8.48 0 0 1-.69 2.93 7.17 7.17 0 0 1-1.59 2.29 7 7 0 0 1-2.35 1.49 8.14 8.14 0 0 1-3 .53 8.43 8.43 0 0 1-3.59-.74 7.88 7.88 0 0 1-2.69-2 9 9 0 0 1-1.69-3 11 11 0 0 1-.59-3.63 11 11 0 0 1 .59-3.6 9 9 0 0 1 1.69-3 8 8 0 0 1 2.69-2 8.29 8.29 0 0 1 3.65-.76A9.46 9.46 0 0 1 22 .6a7.31 7.31 0 0 1 2.34 1.2A6.23 6.23 0 0 1 26 3.72a6.66 6.66 0 0 1 .78 2.58h-3.14zM29.31.62h2.85v17.85h-2.85V.62zM37.49 12.74a5 5 0 0 0 .21 1.45 3.57 3.57 0 0 0 .64 1.23 3.06 3.06 0 0 0 1.08.84 3.54 3.54 0 0 0 1.55.31A3.42 3.42 0 0 0 43 16a3.17 3.17 0 0 0 1.14-1.61h2.7a5.36 5.36 0 0 1-2.1 3.26 5.71 5.71 0 0 1-1.74.85 7 7 0 0 1-2 .29 6.85 6.85 0 0 1-2.7-.5 5.58 5.58 0 0 1-2-1.4 5.93 5.93 0 0 1-1.3-2.12 8.74 8.74 0 0 1-.36-2.77 7.79 7.79 0 0 1 .44-2.61 6.68 6.68 0 0 1 1.25-2.18 5.86 5.86 0 0 1 4.56-2 5.8 5.8 0 0 1 2.74.64 6 6 0 0 1 2 1.69 6.84 6.84 0 0 1 1.17 2.39 7.42 7.42 0 0 1 .2 2.81h-9.5zm6.65-1.88a4.61 4.61 0 0 0-.29-1.3 3.47 3.47 0 0 0-.65-1.09 3.23 3.23 0 0 0-1-.75 3 3 0 0 0-1.31-.29 3.42 3.42 0 0 0-1.36.26 3.11 3.11 0 0 0-1.05.73 3.59 3.59 0 0 0-.7 1.09 3.78 3.78 0 0 0-.29 1.35h6.65zM60 15.59a1.51 1.51 0 0 0 .14.75.58.58 0 0 0 .54.23H61a1.85 1.85 0 0 0 .4 0v2l-.4.04-.49.11-.5.08h-.43a2.75 2.75 0 0 1-1.45-.35 1.74 1.74 0 0 1-.75-1.23 5 5 0 0 1-2.09 1.2 8.22 8.22 0 0 1-2.39.38 5.86 5.86 0 0 1-1.68-.24 4.38 4.38 0 0 1-1.41-.7 3.35 3.35 0 0 1-1-1.18 3.62 3.62 0 0 1-.35-1.68 3.84 3.84 0 0 1 .44-2 3.24 3.24 0 0 1 1.15-1.18 5.21 5.21 0 0 1 1.6-.61q.89-.19 1.79-.29a14.67 14.67 0 0 1 1.48-.21 6.86 6.86 0 0 0 1.24-.21 1.9 1.9 0 0 0 .84-.37 1.27 1.27 0 0 0 .31-.94 1.46 1.46 0 0 0-.26-.9 1.77 1.77 0 0 0-.65-.54 2.82 2.82 0 0 0-.86-.25 6.94 6.94 0 0 0-.9-.06 3.58 3.58 0 0 0-2 .5 2 2 0 0 0-.87 1.55h-2.83a4.29 4.29 0 0 1 .6-2.08 4.14 4.14 0 0 1 1.34-1.33 5.48 5.48 0 0 1 1.84-.7 10.94 10.94 0 0 1 2.1-.2 8.85 8.85 0 0 1 1.88.2 5.34 5.34 0 0 1 1.65.62 3.61 3.61 0 0 1 1.19 1.16A3.19 3.19 0 0 1 60 8.94v6.65zM57.14 12a3.45 3.45 0 0 1-1.6.51q-1 .09-1.9.26a6.12 6.12 0 0 0-.87.21 2.63 2.63 0 0 0-.75.38 1.65 1.65 0 0 0-.51.63 2.14 2.14 0 0 0-.19.94 1.19 1.19 0 0 0 .27.8 2 2 0 0 0 .66.51 3.08 3.08 0 0 0 .85.26 5.3 5.3 0 0 0 .84.07 4.6 4.6 0 0 0 1-.12A3.4 3.4 0 0 0 56 16a2.73 2.73 0 0 0 .81-.76 1.93 1.93 0 0 0 .33-1.14V12zM63.06 5.54h2.68V8h.05a2.88 2.88 0 0 1 .49-1 4.73 4.73 0 0 1 .88-.91 4.4 4.4 0 0 1 1.14-.66 3.41 3.41 0 0 1 1.28-.25 6.21 6.21 0 0 1 .69 0h.39V8L70 7.93a5.06 5.06 0 0 0-.61 0 3.28 3.28 0 0 0-1.36.29 3.13 3.13 0 0 0-1.09.78 4.16 4.16 0 0 0-.75 1.39 6 6 0 0 0-.27 1.9v6.15h-2.86V5.54zM77.19.62h3.25l4.48 14.13H85L89.54.62h3.17l-6.1 17.85h-3.47zM94.42.62h2.85v2.7h-2.85V.62zm0 4.93h2.85v12.92h-2.85V5.54zM102.59 12.74a5 5 0 0 0 .21 1.45 3.57 3.57 0 0 0 .64 1.23 3.06 3.06 0 0 0 1.08.84 3.54 3.54 0 0 0 1.55.31 3.42 3.42 0 0 0 2-.54 3.18 3.18 0 0 0 1.14-1.61h2.7a5.36 5.36 0 0 1-2.1 3.26 5.71 5.71 0 0 1-1.74.85 7 7 0 0 1-2 .29 6.85 6.85 0 0 1-2.7-.5 5.58 5.58 0 0 1-2-1.4 5.93 5.93 0 0 1-1.22-2.15 8.73 8.73 0 0 1-.41-2.77 7.77 7.77 0 0 1 .44-2.61 6.69 6.69 0 0 1 1.25-2.18 5.86 5.86 0 0 1 4.56-2 5.79 5.79 0 0 1 2.74.64 6 6 0 0 1 2 1.69 6.85 6.85 0 0 1 1.16 2.41 7.42 7.42 0 0 1 .19 2.81h-9.5zm6.65-1.88a4.6 4.6 0 0 0-.29-1.3 3.48 3.48 0 0 0-.65-1.09 3.22 3.22 0 0 0-1-.75 3 3 0 0 0-1.3-.28 3.43 3.43 0 0 0-1.36.26 3.12 3.12 0 0 0-1 .73 3.6 3.6 0 0 0-.7 1.09 3.8 3.8 0 0 0-.29 1.35h6.65zM113.1 5.54h3l2.53 9.65 2.42-9.65H124l2.33 9.65L129 5.54h2.9l-4 12.93h-2.93l-2.4-9.6-2.37 9.6h-3z" transform="translate(-.28 -.19)"/></svg><svg id="comment" data-name="Layer 1" width="64" height="64" viewBox="0 0 64 64" x="206.4" xmlns="http://www.w3.org/2000/svg"><defs><style>.bcls-1{fill:#2f5572}</style></defs><title>comment</title><path class="bcls-1" d="M.72.08A.67.67 0 0 0 0 .8v46.48a.72.72 0 0 0 .72.72H48l16 16V.72a.67.67 0 0 0-.72-.72H.8z"/></svg><svg id="facebook" data-name="Layer 1" width="21.23" height="42.01" viewBox="0 0 21.23 42.01" x="184.41" y="64" xmlns="http://www.w3.org/2000/svg"><defs><style>.ccls-1{fill:#fff}</style></defs><title>facebook</title><path class="ccls-1" d="M21.23.31V7H17.4a3.55 3.55 0 0 0-2.85.91 4.26 4.26 0 0 0-.74 2.72v4.77H21l-1 7.47h-6.19V42H6.27V22.85H0v-7.47h6.27V9.85q0-4.69 2.55-7.28A9 9 0 0 1 15.63 0a39.57 39.57 0 0 1 5.6.31z"/></svg><svg width="64" height="64" viewBox="0 0 512 512" id="fire" y="107.53" xmlns="http://www.w3.org/2000/svg"><circle cx="256" cy="256" r="256" fill="#ff916e"/><path fill="#92deeb" d="M84.576 413.894h342.842v60.122H84.576z"/><g fill="#fff"><path d="M255.967 432.524h141.167v7.621H255.967zM255.967 447.785h70.593v7.614h-70.593zM84.576 72.935h342.842v340.959H84.576z"/></g><path fill="#353f49" d="M84.576 37.987h342.842v34.961H84.576z"/><g fill="#d9d8d7"><path d="M114.876 346.674h282.228v7.614H114.876zM114.876 361.901h282.228v7.64H114.876zM114.876 377.195h141.167v7.611H114.876zM314.17 117.265h82.944v7.614H314.17z"/></g><path fill="#353f49" d="M314.17 102.04h82.944v7.617H314.17z"/><g fill="#d9d8d7"><path d="M314.17 132.492h82.944v7.64H314.17zM314.17 147.77h41.492v7.611H314.17z"/></g><g fill="#92deeb"><path d="M114.876 247.081h83.01v83.01h-83.01zM214.505 247.081h82.977v83.01h-82.977zM314.104 247.081h83.01v83.01h-83.01z"/></g><g fill="#f77b55"><path d="M114.876 178.738h26.109v24.602h-26.109zM154.013 143.393h26.115v59.954h-26.115zM193.173 163.179h26.069v40.154h-26.069zM232.283 122.124h26.082v81.216h-26.082zM271.426 102.04h26.076v101.3h-26.076z"/></g><g fill="#353f49"><path d="M114.876 210.382h182.635v7.611H114.876zM84.576 306.691c-12.146 0-22.029-9.89-22.029-22.036 0-12.162 9.883-22.049 22.029-22.049 12.169 0 22.056 9.887 22.056 22.049-.004 12.146-9.89 22.036-22.056 22.036zm0-40.534c-10.187 0-18.491 8.314-18.491 18.498 0 10.194 8.304 18.501 18.491 18.501 10.207 0 18.511-8.308 18.511-18.501-.003-10.183-8.308-18.498-18.511-18.498zM167.279 391.33c0 45.654-37.039 82.683-82.703 82.683-45.66 0-82.673-37.029-82.673-82.683 0-45.677 37.013-82.696 82.673-82.696 45.664 0 82.703 37.019 82.703 82.696z"/></g><path d="M157.62 391.33c0 40.322-32.702 73.041-73.044 73.041-40.309 0-73.024-32.718-73.024-73.041 0-40.339 32.715-73.057 73.024-73.057 40.339-.001 73.044 32.718 73.044 73.057z" fill="#fff"/><path d="M84.576 318.272v73.057l51.672 51.629c13.206-13.229 21.375-31.473 21.375-51.629-.003-40.338-32.702-73.057-73.047-73.057z" fill="#f77b55"/><g fill="#353f49"><path d="M83.902 323.055h1.364v6.098h-1.364zM78.769 329.388l-1.371.162-.624-6.032 1.354-.155zM72.315 330.364l-1.335.277-1.233-5.931 1.336-.277zM66.031 331.958l-1.321.429-1.856-5.781 1.301-.429zM59.911 334.23l-1.259.549-2.458-5.543 1.266-.545zM54.1 337.114l-1.229.707-3.006-5.279 1.193-.67zM48.566 340.605l-1.116.8-3.534-4.93 1.117-.8zM43.484 344.645l-1.024.902-4.06-4.482 1.021-.935zM38.826 349.194l-.915 1.031-4.519-4.06.942-1.047zM34.684 354.202l-.826 1.126-4.909-3.564.823-1.113zM31.057 359.629l-.674 1.196-5.269-3.039.694-1.186zM28.058 365.386l-.588 1.259-5.533-2.468.571-1.258zM25.65 371.444l-.419 1.312-5.778-1.846.42-1.312zM23.886 377.704l-.265 1.368-5.936-1.289.268-1.324zM22.809 384.109l-.159 1.414-6.031-.654.142-1.371zM16.315 390.639H22.4V392h-6.085zM22.65 397.113l.159 1.398-6.043.683-.158-1.398zM23.621 403.555l.265 1.384-5.933 1.249-.268-1.338zM25.233 409.884l.42 1.308-5.787 1.857-.42-1.289zM27.47 415.988l.588 1.256-5.55 2.47-.571-1.261zM30.383 421.815l.674 1.189-5.249 3.036-.694-1.196zM33.858 427.312l.826 1.116-4.912 3.571-.823-1.123zM37.911 432.419l.915 1.027-4.492 4.066-.948-1.04zM42.443 437.083l1.041.905-4.063 4.535-1.021-.951zM47.456 441.25l1.117.807-3.559 4.924-1.117-.807zM52.871 444.819l1.229.704-3.042 5.248-1.202-.68zM58.652 447.858l1.259.548-2.458 5.536-1.259-.548zM64.677 450.244l1.322.42-1.835 5.786-1.322-.419zM70.986 452.027l1.325.261-1.252 5.932-1.338-.254zM77.398 453.09l1.371.169-.641 6.012-1.354-.149zM83.902 453.5h1.364v6.098h-1.364zM90.393 453.259l1.374-.169.628 6.032-1.348.149zM96.827 452.288l1.375-.261 1.245 5.939-1.351.254zM103.12 450.656l1.31-.423 1.864 5.778-1.31.422zM109.257 448.406l1.259-.548 2.458 5.536-1.262.548zM115.084 445.523l1.18-.711 3.058 5.289-1.209.68zM120.59 442.01l1.125-.806 3.535 4.935-1.125.806zM125.704 437.988l1.024-.905 4.053 4.489-1.034.951zM130.342 433.446l.925-1.027 4.496 4.056-.912 1.037zM134.495 428.405l.813-1.117 4.908 3.574-.813 1.117zM138.088 423.022l.691-1.188 5.232 3.043-.69 1.188zM141.124 417.244l.555-1.256 5.523 2.468-.529 1.258zM143.522 411.192l.423-1.308 5.79 1.876-.462 1.289zM145.269 404.949l.291-1.394 5.933 1.295-.288 1.344zM146.373 398.521l.132-1.401 6.048.651-.165 1.374zM146.762 390.639h6.061V392h-6.061zM146.505 385.523l-.132-1.414 6.015-.611.165 1.377zM145.56 379.078l-.291-1.374 5.93-1.245.303 1.324zM143.945 372.749l-.423-1.308 5.751-1.86.462 1.308zM141.679 366.645l-.555-1.259 5.549-2.461.539 1.259zM138.79 360.836l-.697-1.196 5.238-3.05.697 1.197zM135.321 355.317l-.812-1.129 4.921-3.544.813 1.13zM131.267 350.225l-.925-1.031 4.509-4.076.912 1.047zM126.728 345.547l-1.024-.902 4.043-4.515 1.034.935zM121.701 341.402l-1.127-.803 3.574-4.915 1.117.806zM116.264 337.821l-1.17-.707 3.019-5.242 1.209.67zM110.516 334.779l-1.259-.549 2.461-5.539 1.266.545zM104.468 332.407l-1.32-.43 1.881-5.782 1.32.429zM98.202 330.633l-1.375-.277 1.269-5.933 1.361.284zM91.767 329.55l-1.374-.162.654-6.025 1.357.152zM73.247 382.098l1.945-1.955 58.893 58.594-1.945 1.955z"/></g><path d="M90.839 391.33c0 3.442-2.795 6.233-6.263 6.233a6.233 6.233 0 0 1-6.23-6.233 6.231 6.231 0 0 1 6.23-6.246 6.24 6.24 0 0 1 6.263 6.246z" fill="#474f59"/><path d="M87.096 391.33c0 1.381-1.123 2.491-2.524 2.491a2.501 2.501 0 0 1-2.501-2.491 2.51 2.51 0 0 1 2.501-2.514 2.51 2.51 0 0 1 2.524 2.514z" fill="#fff"/><path fill="#474f59" d="M77.698 295.143h13.784v13.807H77.698z"/><path fill="#353f49" d="M73.573 284.11h22.019v11.01H73.573z"/><path fill="#474f59" d="M142.44 324.835l8.697 8.704-3.907 3.904-8.696-8.704z"/><path fill="#353f49" d="M150.72 313.062l12.178 12.198-10.003 9.985-12.177-12.197z"/><path fill="#474f59" d="M30.637 328.717l-8.707 8.701-3.881-3.901 8.701-8.711z"/><path fill="#353f49" d="M28.49 323.039l-12.198 12.195-9.996-9.975 12.186-12.192z"/></svg><svg width="64" height="64" viewBox="0 0 512 512" id="globe" x="64" y="107.53" xmlns="http://www.w3.org/2000/svg"><circle cx="256" cy="256" r="256" fill="#f67656"/><path d="M257.804 137.639c0 16.377-13.262 29.64-29.643 29.64-16.361 0-29.623-13.262-29.623-29.64 0-16.371 13.262-29.643 29.623-29.643 16.38 0 29.643 13.272 29.643 29.643z" fill="#d65a38"/><g fill="#fff"><path d="M225.214 90.839h5.923v11.835h-5.923zM208.12 108.82l-5.912-10.25 5.127-2.957 5.912 10.249zM196.438 122.725l-10.257-5.92 2.96-5.127 10.256 5.92zM181.367 134.676h11.842v5.919h-11.842zM189.117 163.584l-2.955-5.129 10.259-5.91 2.955 5.129zM267.224 163.596l-10.256-5.914 2.956-5.127 10.256 5.913zM263.135 134.676h11.839v5.919h-11.839zM259.917 122.718l-2.96-5.125 10.253-5.923 2.96 5.125zM248.227 108.843l-5.13-2.961 5.915-10.244 5.13 2.961z"/><path d="M335.376 188.419a16.012 16.012 0 0 0-11.31-4.684 15.92 15.92 0 0 0-11.29 4.684 15.895 15.895 0 0 0-4.7 11.304v.013c0-4.103-1.569-8.189-4.677-11.317a15.931 15.931 0 0 0-11.29-4.684 15.953 15.953 0 0 0-11.307 4.684 15.993 15.993 0 0 0-4.691 11.317v-.013c0-4.096-1.556-8.189-4.671-11.31a15.992 15.992 0 0 0-11.297-4.677 16.013 16.013 0 0 0-11.314 4.677 15.97 15.97 0 0 0-4.677 11.31v-62.084c0-4.083-1.576-8.189-4.7-11.3a15.888 15.888 0 0 0-11.29-4.681 15.932 15.932 0 0 0-11.297 4.681 15.943 15.943 0 0 0-4.684 11.3v183.745h127.861V199.723a15.963 15.963 0 0 0-4.666-11.304z"/><path d="M228.16 335.994c-8.823 0-15.978-7.151-15.978-15.981 0-26.773-21.788-48.554-48.561-48.554-8.823 0-15.978-7.165-15.978-15.988 0-8.833 7.155-15.988 15.978-15.988 44.409 0 80.536 36.131 80.536 80.529.001 8.831-7.154 15.982-15.997 15.982z"/></g><path d="M335.175 421.161a9.347 9.347 0 0 0 9.361-9.362v-82.432a9.331 9.331 0 0 0-2.735-6.613 9.339 9.339 0 0 0-6.626-2.742H217.058c-2.388 0-4.79.915-6.613 2.742a9.3 9.3 0 0 0-2.745 6.613V411.8c0 2.401.915 4.793 2.745 6.62a9.326 9.326 0 0 0 6.613 2.742h118.117z" fill="#3f4a5a"/><path d="M320.403 338.277c4.103 0 7.419 3.34 7.419 7.426 0 4.106-3.316 7.432-7.419 7.432-4.096 0-7.436-3.326-7.436-7.432 0-4.087 3.34-7.426 7.436-7.426z" fill="#fff"/></svg><svg id="instagram" data-name="Layer 1" width="42.01" height="42.01" viewBox="0 0 42.01 42.01" x="142.4" y="64" xmlns="http://www.w3.org/2000/svg"><defs><style>.fcls-1{fill:#fff}</style></defs><title>instagram</title><path class="fcls-1" d="M37.25 35.49V17.77h-3.69a11.77 11.77 0 0 1 .57 3.58 12.12 12.12 0 0 1-1.75 6.36 12.76 12.76 0 0 1-4.76 4.59 13.13 13.13 0 0 1-6.56 1.7 12.78 12.78 0 0 1-9.19-3.71 12 12 0 0 1-3.83-9 11.77 11.77 0 0 1 .49-3.56H4.68v17.76a1.63 1.63 0 0 0 1.6 1.67h29.3a1.63 1.63 0 0 0 1.17-.47 1.59 1.59 0 0 0 .5-1.2zm-7.77-14.57A7.75 7.75 0 0 0 27 15.14a8.28 8.28 0 0 0-6-2.4 8.25 8.25 0 0 0-5.91 2.39 7.75 7.75 0 0 0-2.47 5.78 7.75 7.75 0 0 0 2.47 5.79A8.25 8.25 0 0 0 21 29.1a8.28 8.28 0 0 0 6-2.4 7.75 7.75 0 0 0 2.48-5.78zm7.76-9.84V6.56a1.84 1.84 0 0 0-.54-1.31 1.8 1.8 0 0 0-1.31-.56h-4.78a1.8 1.8 0 0 0-1.31.56 1.84 1.84 0 0 0-.54 1.31v4.52A1.87 1.87 0 0 0 30.6 13h4.8a1.87 1.87 0 0 0 1.85-1.89zM42 5.39v31.23A5.41 5.41 0 0 1 36.62 42H5.39a5.19 5.19 0 0 1-3.8-1.59A5.19 5.19 0 0 1 0 36.62V5.39a5.19 5.19 0 0 1 1.59-3.8A5.19 5.19 0 0 1 5.39 0h31.23a5.19 5.19 0 0 1 3.8 1.59A5.19 5.19 0 0 1 42 5.39z"/></svg><svg id="mail" data-name="Layer 1" width="64" height="48" viewBox="0 0 64 48" y="59.53" xmlns="http://www.w3.org/2000/svg"><defs><style>.gcls-1{fill:#2f5572}</style></defs><title>mail</title><path class="gcls-1" d="M0 0v8l32 16L64 8V0H0zm0 16v32h64V16L32 32z"/></svg><svg width="64" height="64" viewBox="0 0 512 512" id="rain" x="206.4" y="64" xmlns="http://www.w3.org/2000/svg"><circle cx="256" cy="256" r="256" fill="#fc6f58"/><path d="M274.573 228.602l-50.666-50.29-34.63 30.617 64.557 64.181-28.577 61.328-54.591 92.229L256 512c141.384 0 256-114.616 256-256L341.333 85.333l-66.76 143.269z" fill="#f1543f"/><path d="M336.162 176.592V95.677H175.838v80.915a45.86 45.86 0 0 0 22.268 39.327 45.866 45.866 0 0 1 22.268 39.327v1.505a45.86 45.86 0 0 1-22.268 39.327 45.867 45.867 0 0 0-22.268 39.329v80.915h160.323v-80.915a45.86 45.86 0 0 0-22.268-39.327 45.866 45.866 0 0 1-22.268-39.327v-1.505a45.86 45.86 0 0 1 22.268-39.327 45.866 45.866 0 0 0 22.269-39.329z" fill="#e6f3ff"/><path d="M313.894 215.919a45.866 45.866 0 0 0 22.268-39.327V95.677h-80.736v320.646h80.736v-80.915a45.86 45.86 0 0 0-22.268-39.327 45.866 45.866 0 0 1-22.268-39.327v-1.507a45.87 45.87 0 0 1 22.268-39.328z" fill="#cfdbe6"/><path d="M261.392 336.065l-1.083-.541v-28.35l9.678-12.833a37.028 37.028 0 0 0 7.465-22.294v-16.724c0-14.465 5.089-27.869 13.409-35.311 8.318-7.442 13.409-20.845 13.409-35.311h-96.539c0 14.465 5.089 27.869 13.409 35.311 8.318 7.442 13.409 20.845 13.409 35.311v16.724c0 8.045 2.62 15.872 7.465 22.294l9.678 12.833v28.35l-1.083.541a68.46 68.46 0 0 0-37.843 61.231v.926h38.926v17.67h8.62v-17.67h38.926v-.926a68.464 68.464 0 0 0-37.846-61.231z" fill="#ffd15d"/><path d="M261.392 336.065l-1.083-.541v-28.35l9.678-12.833a37.028 37.028 0 0 0 7.465-22.294v-16.724c0-14.465 5.089-27.869 13.409-35.311s13.409-20.845 13.409-35.311h-48.843v231.19h4.884v-17.67h38.926v-.926a68.461 68.461 0 0 0-37.845-61.23z" fill="#f9b54c"/><g fill="#324a5e"><path d="M170.667 398.222h170.667v28.444H170.667zM170.667 85.333h170.667v28.444H170.667z"/></g><g fill="#2b3b4e"><path d="M255.431 398.222h85.907v28.444h-85.907zM255.431 85.333h85.907v28.444h-85.907z"/></g></svg><svg id="star" data-name="Layer 1" width="64" height="64" viewBox="0 0 64 64" x="128" y="107.53" xmlns="http://www.w3.org/2000/svg"><defs><style>.icls-1{fill:#d4953f}</style></defs><title>star</title><path class="icls-1" d="M32 0l-8 24H0l20 16-8 24 20-16 20 16-8-24 20-16H40z"/></svg><svg id="twitter" data-name="Layer 1" width="51.78" height="42.06" viewBox="0 0 51.78 42.06" x="206.4" y="128" xmlns="http://www.w3.org/2000/svg"><defs><style>.jcls-1{fill:#fff}</style></defs><title>twitter</title><path class="jcls-1" d="M51.78 5a22.23 22.23 0 0 1-5.32 5.52v1.38a30.15 30.15 0 0 1-1.25 8.53 30.81 30.81 0 0 1-3.76 8.13 32.1 32.1 0 0 1-6.06 6.92 27 27 0 0 1-8.48 4.8 31 31 0 0 1-10.62 1.8A29.47 29.47 0 0 1 0 37.29a22.71 22.71 0 0 0 2.56.13 20.78 20.78 0 0 0 13.17-4.53 10.63 10.63 0 0 1-9.92-7.36 13.45 13.45 0 0 0 2 .16 11 11 0 0 0 2.79-.36 10.44 10.44 0 0 1-6.09-3.67 10.25 10.25 0 0 1-2.41-6.75v-.13a10.52 10.52 0 0 0 4.8 1.34 10.6 10.6 0 0 1-3.45-3.78 10.34 10.34 0 0 1-1.28-5.07 10.4 10.4 0 0 1 1.45-5.33 30.08 30.08 0 0 0 9.71 7.83A29.57 29.57 0 0 0 25.53 13a11.79 11.79 0 0 1-.26-2.43 10.23 10.23 0 0 1 3-7.48 10.64 10.64 0 0 1 15 0l.21.22A20.81 20.81 0 0 0 50.33.8a10.3 10.3 0 0 1-4.67 5.85A21.14 21.14 0 0 0 51.78 5z"/></svg><svg width="64" height="64" viewBox="0 0 512 512" id="wifi" x="142.4" xmlns="http://www.w3.org/2000/svg"><circle cx="256" cy="256" r="256" fill="#ff916e"/><g fill="#fff"><path d="M62.761 119.114H314.83v159.215H62.761zM82.633 319.211l40.96-40.878h-40.96z"/><path d="M246.355 238.394h202.884v128.172H246.355z"/><path d="M433.192 399.499l-32.871-32.947h32.871z"/></g><path fill="#ffdb79" d="M246.355 238.394h68.492v39.969h-68.492z"/><g fill="#cccbca"><path d="M139.627 153.336h140.959v5.672H139.627zM139.627 167.513h140.959v5.685H139.627zM139.627 181.71h140.959v5.662H139.627zM97.006 195.881h183.593v5.672H97.006zM97.006 210.052h183.593v5.685H97.006zM97.006 224.223h183.593v5.682H97.006zM97.006 238.394h91.79v5.688h-91.79z"/></g><g fill="#474f59"><path d="M117.552 153.349h-7.29l-13.256 34.023h7.317l2.785-7.726h13.583l3.019 7.726h7.472l-13.63-34.023zm-8.308 20.549l4.608-12.608 4.628 12.608h-9.236zM352.821 319.937H342.71l-2.996-51.695h16.126zM342.71 326.59h10.111v10.058H342.71z"/></g><g fill="#ffdb79"><path d="M459.644 84.592c0 30.109-24.388 54.507-54.516 54.507-30.102 0-54.49-24.398-54.49-54.507 0-30.096 24.388-54.51 54.49-54.51 30.131 0 54.516 24.415 54.516 54.51z"/><path d="M380.73 133.219h48.964v13.54H380.73z"/></g><path fill="#474f59" d="M375.081 146.762h60.168v34.076h-60.168z"/><g fill="#fff"><path d="M387.799 180.838h34.687v9.279h-34.687zM395.66 92.986h2.999v53.76h-2.999z"/><path d="M385.387 89.98h39.526v3.032h-39.526z"/><path d="M411.747 92.986h3.029v53.76h-3.029zM215.07 386.286c0 30.086-24.361 54.497-54.503 54.497-30.092 0-54.503-24.411-54.503-54.497 0-30.092 24.411-54.507 54.503-54.507 30.141 0 54.503 24.414 54.503 54.507z"/></g><g fill="#ff916e"><path d="M166.182 402.273h-11.214c0-7.389 4.155-14.006 10.841-17.273l4.915 10.078c-2.801 1.372-4.542 4.13-4.542 7.195z"/><path d="M154.968 402.267h11.214v4.169h-11.214zM168.729 396.589l-6.061-3.135-.007-3.409h5.606l-3.184-4.595.77-.453c4.172-2.022 6.762-6.207 6.762-10.92 0-6.656-5.404-12.07-12.044-12.07-6.646 0-12.05 5.417-12.05 12.07h-11.214c0-12.84 10.435-23.284 23.265-23.284 12.823 0 23.255 10.445 23.255 23.284 0 8.886-4.836 16.81-12.655 20.797l-2.443 1.715zm-.43-6.547h5.576-5.596.02zM155.01 411.978h11.181v11.175H155.01z"/></g></svg><svg id="youtube" data-name="Layer 1" width="34.75" height="42" viewBox="0 0 34.75 42" x="64" y="59.53" xmlns="http://www.w3.org/2000/svg"><defs><style>.lcls-1{fill:#fff}</style></defs><title>youtube</title><path class="lcls-1" d="M22.13 29.15v5q0 1.57-.91 1.57a1.5 1.5 0 0 1-1.06-.52v-7.11a1.5 1.5 0 0 1 1.06-.54q.91 0 .91 1.6zm7.92 0v1.08h-2.1v-1.06q0-1.59 1.06-1.59t1 1.59zM7.42 24h2.5v-2.14h-7.3v2.2h2.46V37.4h2.34V24zm6.75 13.4h2.09V25.82h-2.09v8.86a1.86 1.86 0 0 1-1.31 1 .48.48 0 0 1-.49-.47 6.52 6.52 0 0 1 0-.82v-8.57h-2.14V35a5.79 5.79 0 0 0 .19 1.71 1.26 1.26 0 0 0 1.36.87 3.43 3.43 0 0 0 2.39-1.43v1.25zm10.05-3.47v-4.6A8.33 8.33 0 0 0 24 27a1.63 1.63 0 0 0-1.67-1.31A2.82 2.82 0 0 0 20.16 27v-5.1h-2.08v15.5h2.09v-1.13a2.91 2.91 0 0 0 2.18 1.31A1.62 1.62 0 0 0 24 36.27a8.61 8.61 0 0 0 .22-2.35zm7.92-.24v-.3H30a11.6 11.6 0 0 1 0 1.43.9.9 0 0 1-.94.85q-1.08 0-1.08-1.61V32h4.19v-2.41a4.65 4.65 0 0 0-.66-2.72 3.2 3.2 0 0 0-5 0 4.52 4.52 0 0 0-.66 2.72v4.05a4.4 4.4 0 0 0 .66 2.72 3 3 0 0 0 2.49 1.2 2.9 2.9 0 0 0 3-2.51 10.31 10.31 0 0 0 .09-1.36zM17.89 12.3V7.38q0-1.61-1-1.61t-1 1.61v4.92q0 1.64 1 1.64t1-1.64zm16.85 17.6a40.6 40.6 0 0 1-.61 8.2 4.45 4.45 0 0 1-1.36 2.32 4.1 4.1 0 0 1-2.39 1.08 125.31 125.31 0 0 1-13 .49 125.31 125.31 0 0 1-13-.49A4.15 4.15 0 0 1 2 40.42 4.28 4.28 0 0 1 .63 38.1 39.76 39.76 0 0 1 0 29.9a40.6 40.6 0 0 1 .61-8.2A4.45 4.45 0 0 1 2 19.37a4.25 4.25 0 0 1 2.41-1.1q4.29-.47 13-.47t13 .47a4.4 4.4 0 0 1 3.75 3.42 39.76 39.76 0 0 1 .58 8.21zM11.35 0h2.39l-2.83 9.35v6.35H8.57V9.35a39.68 39.68 0 0 0-1.43-5Q6.27 2 5.61 0H8.1l1.67 6.16zM20 7.8v4.1a4.59 4.59 0 0 1-.66 2.76 2.88 2.88 0 0 1-2.49 1.19 2.9 2.9 0 0 1-2.46-1.19 4.68 4.68 0 0 1-.66-2.76V7.8a4.59 4.59 0 0 1 .66-2.74 2.9 2.9 0 0 1 2.46-1.19 2.88 2.88 0 0 1 2.49 1.19A4.59 4.59 0 0 1 20 7.8zM27.87 4v11.7h-2.13v-1.27a3.37 3.37 0 0 1-2.41 1.45A1.31 1.31 0 0 1 22 15a6 6 0 0 1-.19-1.76V4h2.13v8.6a6.14 6.14 0 0 0 0 .82.49.49 0 0 0 .47.52 1.87 1.87 0 0 0 1.31-1V4h2.16z"/></svg></svg>