<?xml version="1.0" encoding="iso-8859-1"?>
<!-- Generator: Adobe Illustrator 19.0.0, SVG Export Plug-In . SVG Version: 6.00 Build 0)  -->
<svg version="1.1" id="Layer_1" xmlns="http://www.w3.org/2000/svg" xmlns:xlink="http://www.w3.org/1999/xlink" x="0px" y="0px" width="64" height="64"
	 viewBox="0 0 512 512" style="enable-background:new 0 0 512 512;" xml:space="preserve">
<circle style="fill:#F67656;" cx="256" cy="256" r="256"/>
<path style="fill:#D65A38;" d="M257.804,137.639c0,16.377-13.262,29.64-29.643,29.64c-16.361,0-29.623-13.262-29.623-29.64
	c0-16.371,13.262-29.643,29.623-29.643C244.541,107.996,257.804,121.268,257.804,137.639z"/>
<g>
	<rect x="225.214" y="90.839" style="fill:#FFFFFF;" width="5.923" height="11.835"/>

		<rect x="201.811" y="99.256" transform="matrix(-0.4997 -0.8662 0.8662 -0.4997 222.9894 333.2262)" style="fill:#FFFFFF;" width="11.832" height="5.919"/>

		<rect x="186.869" y="114.244" transform="matrix(-0.8661 -0.4999 0.4999 -0.8661 301.1745 315.0872)" style="fill:#FFFFFF;" width="11.842" height="5.919"/>
	<rect x="181.367" y="134.676" style="fill:#FFFFFF;" width="11.842" height="5.919"/>

		<rect x="189.808" y="152.147" transform="matrix(-0.4992 -0.8665 0.8665 -0.4992 152.0338 404.0042)" style="fill:#FFFFFF;" width="5.919" height="11.839"/>

		<rect x="257.652" y="155.113" transform="matrix(-0.8663 -0.4995 0.4995 -0.8663 412.9487 426.6675)" style="fill:#FFFFFF;" width="11.839" height="5.919"/>
	<rect x="263.135" y="134.676" style="fill:#FFFFFF;" width="11.839" height="5.919"/>

		<rect x="260.604" y="111.27" transform="matrix(-0.5002 -0.8659 0.8659 -0.5002 293.9223 404.0327)" style="fill:#FFFFFF;" width="5.919" height="11.842"/>

		<rect x="245.654" y="96.322" transform="matrix(-0.866 -0.5 0.5 -0.866 412.8026 315.0851)" style="fill:#FFFFFF;" width="5.923" height="11.829"/>
	<path style="fill:#FFFFFF;" d="M335.376,188.419c-3.131-3.112-7.221-4.684-11.31-4.684c-4.093,0-8.182,1.572-11.29,4.684
		c-3.135,3.118-4.7,7.214-4.7,11.304v0.013c0-4.103-1.569-8.189-4.677-11.317c-3.118-3.115-7.201-4.684-11.29-4.684
		c-4.099,0-8.189,1.569-11.307,4.684c-3.115,3.128-4.691,7.214-4.691,11.317v-0.013c0-4.096-1.556-8.189-4.671-11.31
		c-3.125-3.108-7.214-4.677-11.297-4.677c-4.093,0-8.189,1.569-11.314,4.677c-3.112,3.118-4.677,7.214-4.677,11.31v-62.084
		c0-4.083-1.576-8.189-4.7-11.3c-3.105-3.118-7.198-4.681-11.29-4.681c-4.086,0-8.179,1.562-11.297,4.681
		c-3.118,3.112-4.684,7.218-4.684,11.3v183.745h31.972h31.959h31.965h31.965V199.723
		C340.041,195.634,338.488,191.538,335.376,188.419z"/>
	<path style="fill:#FFFFFF;" d="M228.16,335.994c-8.823,0-15.978-7.151-15.978-15.981c0-26.773-21.788-48.554-48.561-48.554
		c-8.823,0-15.978-7.165-15.978-15.988c0-8.833,7.155-15.988,15.978-15.988c44.409,0,80.536,36.131,80.536,80.529
		C244.158,328.843,237.003,335.994,228.16,335.994z"/>
</g>
<path style="fill:#3F4A5A;" d="M335.175,421.161c2.408,0,4.793-0.915,6.626-2.742c1.82-1.827,2.735-4.218,2.735-6.62v-82.432
	c0-2.395-0.915-4.793-2.735-6.613c-1.833-1.827-4.218-2.742-6.626-2.742H217.058c-2.388,0-4.79,0.915-6.613,2.742
	c-1.83,1.82-2.745,4.218-2.745,6.613V411.8c0,2.401,0.915,4.793,2.745,6.62c1.823,1.827,4.225,2.742,6.613,2.742H335.175z"/>
<path style="fill:#FFFFFF;" d="M320.403,338.277c4.103,0,7.419,3.34,7.419,7.426c0,4.106-3.316,7.432-7.419,7.432
	c-4.096,0-7.436-3.326-7.436-7.432C312.967,341.616,316.307,338.277,320.403,338.277z"/>
<g>
</g>
<g>
</g>
<g>
</g>
<g>
</g>
<g>
</g>
<g>
</g>
<g>
</g>
<g>
</g>
<g>
</g>
<g>
</g>
<g>
</g>
<g>
</g>
<g>
</g>
<g>
</g>
<g>
</g>
</svg>
